<svg width="24" height="24" viewBox="0 0 24 24" fill="none" xmlns="http://www.w3.org/2000/svg">
<g clip-path="url(#clip0_10746_18363)">
<mask id="mask0_10746_18363" style="mask-type:luminance" maskUnits="userSpaceOnUse" x="0" y="0" width="24" height="24">
<path d="M24 0H0V24H24V0Z" fill="white"/>
</mask>
<g mask="url(#mask0_10746_18363)">
<mask id="mask1_10746_18363" style="mask-type:alpha" maskUnits="userSpaceOnUse" x="3" y="0" width="18" height="24">
<path d="M13 1C13 0.447715 13.4477 0 14 0H20C20.5523 0 21 0.447715 21 1V23C21 23.5523 20.5523 24 20 24H4C3.44772 24 3 23.5523 3 23V13C3 12.4477 3.44772 12 4 12H8.00002V7C8.00002 6.44772 8.44775 6 9.00002 6H13V1Z" fill="white"/>
</mask>
<g mask="url(#mask1_10746_18363)">
<path d="M21 0V24H13V0H21Z" fill="url(#paint0_linear_10746_18363)"/>
<g filter="url(#filter0_f_10746_18363)">
<path d="M16 7.09961V24.0996H8V6.09961H15C15.5523 6.09961 16 6.54733 16 7.09961Z" fill="black" fill-opacity="0.2"/>
</g>
<g filter="url(#filter1_f_10746_18363)">
<path d="M16 7.5V24.5H8V6.5H15C15.5523 6.5 16 6.94772 16 7.5Z" fill="black" fill-opacity="0.18"/>
</g>
<path d="M16 7V24H8V6H15C15.5523 6 16 6.44772 16 7Z" fill="url(#paint1_linear_10746_18363)"/>
<path d="M3 12V24H11V13C11 12.4477 10.5523 12 10 12H3Z" fill="url(#paint2_linear_10746_18363)"/>
</g>
</g>
</g>
<defs>
<filter id="filter0_f_10746_18363" x="7.8" y="5.89961" width="8.4" height="18.4" filterUnits="userSpaceOnUse" color-interpolation-filters="sRGB">
<feFlood flood-opacity="0" result="BackgroundImageFix"/>
<feBlend mode="normal" in="SourceGraphic" in2="BackgroundImageFix" result="shape"/>
<feGaussianBlur stdDeviation="0.1" result="effect1_foregroundBlur_10746_18363"/>
</filter>
<filter id="filter1_f_10746_18363" x="6" y="4.5" width="12" height="22" filterUnits="userSpaceOnUse" color-interpolation-filters="sRGB">
<feFlood flood-opacity="0" result="BackgroundImageFix"/>
<feBlend mode="normal" in="SourceGraphic" in2="BackgroundImageFix" result="shape"/>
<feGaussianBlur stdDeviation="1" result="effect1_foregroundBlur_10746_18363"/>
</filter>
<linearGradient id="paint0_linear_10746_18363" x1="11.6667" y1="-1.31226e-07" x2="22.2163" y2="22.3616" gradientUnits="userSpaceOnUse">
<stop stop-color="#E6AD10"/>
<stop offset="1" stop-color="#C87E0E"/>
</linearGradient>
<linearGradient id="paint1_linear_10746_18363" x1="7.99935" y1="6" x2="16.8715" y2="23.2065" gradientUnits="userSpaceOnUse">
<stop stop-color="#F6D751"/>
<stop offset="1" stop-color="#E6AD10"/>
</linearGradient>
<linearGradient id="paint2_linear_10746_18363" x1="2.99935" y1="12" x2="7.90208" y2="23.6194" gradientUnits="userSpaceOnUse">
<stop stop-color="#F9E589"/>
<stop offset="1" stop-color="#F6D751"/>
</linearGradient>
<clipPath id="clip0_10746_18363">
<rect width="24" height="24" fill="white"/>
</clipPath>
</defs>
</svg>
