<svg width="24" height="24" viewBox="0 0 24 24" fill="none" xmlns="http://www.w3.org/2000/svg">
<g clip-path="url(#clip0_10746_18418)">
<path d="M23.9998 12.6758C23.9998 13.4324 23.4366 14.0705 22.6858 14.1642L19.2057 14.5994C18.5097 14.7381 18.0001 15.3507 18.0001 16.0701V21.165C18.0001 21.9216 17.4367 22.5597 16.6861 22.6535L7.68606 23.7785C6.79079 23.8904 6 23.1923 6 22.29V14.2499L11.9998 13.3928L11.9995 3.49744C11.9995 2.71729 12.5976 2.06737 13.375 2.00257L17.9995 1.61719C17.9995 2.33131 18.5313 2.93366 19.2399 3.02224L22.6857 3.45297C23.4363 3.54679 23.9995 4.18486 23.9995 4.94133L23.9998 12.6758Z" fill="url(#paint0_linear_10746_18418)"/>
<path d="M6.00001 22.506V18.3301C6.00001 17.5739 6.56268 16.9361 7.31269 16.8418L0 17.7559V19.1817C0 19.9383 0.563311 20.5764 1.31396 20.6701L4.75966 21.1009C5.46826 21.1894 6.00001 21.7918 6.00001 22.506Z" fill="url(#paint1_linear_10746_18418)"/>
<path opacity="0.5" d="M1.31397 10.5858C0.563326 10.6796 1.50204e-05 11.3177 1.50204e-05 12.0741L0 20.2739V19.848C0 19.0916 0.563311 18.4535 1.31396 18.3597L10.6861 17.1881C11.4367 17.0943 12 16.4562 12 15.6998V9.25L1.31397 10.5858Z" fill="black"/>
<path opacity="0.5" d="M0.171675 10.6269C0.393631 10.2046 0.811891 9.89835 1.31397 9.83559L6.00001 9.24984V9.24414L12.75 8.40039V15.6998C12.75 16.8344 11.9051 17.7915 10.7791 17.9324L1.40697 19.1039C1.09485 19.1429 0.327901 19.3695 0.0792301 19.6622C0.02793 19.511 0.000165 19.3494 0 19.1819L1.50204e-05 12.0486C0.000720022 11.5107 0.024465 11.0139 0.171675 10.6269Z" fill="black" fill-opacity="0.5"/>
<path d="M1.31397 9.83673C0.563326 9.93057 1.50204e-05 10.5687 1.50204e-05 11.3252L0 19.5249V19.099C0 18.3426 0.563311 17.7045 1.31394 17.6107L10.6861 16.4391C11.4367 16.3453 12 15.7072 12 14.9508V8.50098L1.31397 9.83673Z" fill="url(#paint2_linear_10746_18418)"/>
<path d="M1.31397 9.83673C0.563326 9.93057 1.50204e-05 10.5687 1.50204e-05 11.3252L0 19.5249V19.099C0 18.3426 0.563311 17.7045 1.31394 17.6107L10.6861 16.4391C11.4367 16.3453 12 15.7072 12 14.9508V8.50098L1.31397 9.83673Z" fill="url(#paint3_linear_10746_18418)" fill-opacity="0.6"/>
<path d="M12 14.0742V9.82419C12 9.06813 12.5627 8.43032 13.3127 8.33594L6 9.25002V10.6759C6 11.4323 6.56331 12.0704 7.31396 12.1643L10.6861 12.5858C11.4367 12.6797 12 13.3178 12 14.0742Z" fill="url(#paint4_linear_10746_18418)"/>
<path opacity="0.5" d="M7.31396 2.09481C6.56331 2.18865 6 2.82675 6 3.58324V11.5007V11.3249C6 10.5684 6.56331 9.93027 7.31396 9.83645L16.686 8.66493C17.4368 8.5711 18 7.933 18 7.17651V2.45823C18 1.55598 17.2092 0.85791 16.314 0.96981L7.31396 2.09481Z" fill="black"/>
<path opacity="0.5" d="M6 11.3227C6.00035 10.9448 7.03188 10.6267 7.40697 10.5798L16.7792 9.40826C17.9051 9.26752 18.75 8.31037 18.75 7.17564V2.86671C18.3002 2.62687 17.9999 2.15337 17.9999 1.61677L17.9973 1.61698C17.9504 0.820449 17.2854 0.204638 16.4982 0.207038C16.4375 0.207218 16.376 0.211088 16.314 0.218828L7.31396 1.34383C6.81185 1.40659 6.39357 1.71288 6.17163 2.13522C6.02212 2.52834 6 3.03466 6 3.58236V11.3227Z" fill="black" fill-opacity="0.5"/>
<path d="M7.31396 1.34481C6.56331 1.43864 6 2.07674 6 2.83324V10.7507V10.5749C6 9.81837 6.56331 9.18027 7.31396 9.08643L16.686 7.91493C17.4368 7.82109 18 7.18299 18 6.42651V1.70824C18 0.805984 17.2092 0.107898 16.314 0.219813L7.31396 1.34481Z" fill="url(#paint5_linear_10746_18418)"/>
<path d="M7.31396 1.34481C6.56331 1.43864 6 2.07674 6 2.83324V10.7507V10.5749C6 9.81837 6.56331 9.18027 7.31396 9.08643L16.686 7.91493C17.4368 7.82109 18 7.18299 18 6.42651V1.70824C18 0.805984 17.2092 0.107898 16.314 0.219813L7.31396 1.34481Z" fill="url(#paint6_linear_10746_18418)" fill-opacity="0.8"/>
</g>
<defs>
<linearGradient id="paint0_linear_10746_18418" x1="6.5" y1="24.7781" x2="33.948" y2="11.8853" gradientUnits="userSpaceOnUse">
<stop stop-color="#003580"/>
<stop offset="0.299454" stop-color="#0057AD"/>
<stop offset="1" stop-color="#16BFDF"/>
</linearGradient>
<linearGradient id="paint1_linear_10746_18418" x1="0" y1="18.1559" x2="8.00001" y2="18.1559" gradientUnits="userSpaceOnUse">
<stop stop-color="#0E637A"/>
<stop offset="1" stop-color="#0074BD"/>
</linearGradient>
<linearGradient id="paint2_linear_10746_18418" x1="14.1429" y1="17.9956" x2="0.406366" y2="11.094" gradientUnits="userSpaceOnUse">
<stop stop-color="#0986B3"/>
<stop offset="0.721629" stop-color="#16BFDF"/>
<stop offset="1" stop-color="#3DD9EB"/>
</linearGradient>
<linearGradient id="paint3_linear_10746_18418" x1="0" y1="13.7509" x2="1.82144" y2="13.7509" gradientUnits="userSpaceOnUse">
<stop stop-color="#0BA0C5"/>
<stop offset="0.499692" stop-color="#0BA0C5" stop-opacity="0.263415"/>
<stop offset="1" stop-color="#0BA0C5" stop-opacity="0"/>
</linearGradient>
<linearGradient id="paint4_linear_10746_18418" x1="4" y1="12.1965" x2="12" y2="12.1965" gradientUnits="userSpaceOnUse">
<stop stop-color="#117B97"/>
<stop offset="1" stop-color="#1392B4"/>
</linearGradient>
<linearGradient id="paint5_linear_10746_18418" x1="6.75" y1="12.1441" x2="17.4912" y2="1.19747" gradientUnits="userSpaceOnUse">
<stop stop-color="#3DCBFF"/>
<stop offset="0.524843" stop-color="#6EEDED"/>
<stop offset="1" stop-color="#9BF3AF"/>
</linearGradient>
<linearGradient id="paint6_linear_10746_18418" x1="6" y1="6.00057" x2="7.92857" y2="6.00057" gradientUnits="userSpaceOnUse">
<stop stop-color="#3DCBFF"/>
<stop offset="0.433173" stop-color="#3DCBFF" stop-opacity="0.339056"/>
<stop offset="1" stop-color="#3DCBFF" stop-opacity="0"/>
</linearGradient>
<clipPath id="clip0_10746_18418">
<rect width="24" height="24" fill="white"/>
</clipPath>
</defs>
</svg>
