<svg width="24" height="24" viewBox="0 0 24 24" fill="none" xmlns="http://www.w3.org/2000/svg">
<mask id="mask0_10746_18379" style="mask-type:luminance" maskUnits="userSpaceOnUse" x="0" y="0" width="24" height="24">
<path d="M24 0H0V24H24V0Z" fill="white"/>
</mask>
<g mask="url(#mask0_10746_18379)">
<mask id="mask1_10746_18379" style="mask-type:luminance" maskUnits="userSpaceOnUse" x="0" y="0" width="24" height="24">
<path d="M24 0H0V24H24V0Z" fill="white"/>
</mask>
<g mask="url(#mask1_10746_18379)">
<mask id="mask2_10746_18379" style="mask-type:luminance" maskUnits="userSpaceOnUse" x="0" y="0" width="24" height="24">
<path d="M24 0H0V24H24V0Z" fill="white"/>
</mask>
<g mask="url(#mask2_10746_18379)">
<mask id="mask3_10746_18379" style="mask-type:alpha" maskUnits="userSpaceOnUse" x="-1" y="0" width="25" height="24">
<path d="M0.364299 11.0128C-0.130548 11.5784 -0.130548 12.4228 0.364299 12.9883L9.24744 23.1405C9.64584 23.5958 10.3542 23.5958 10.7526 23.1405L11.7092 22.0472L12.7626 23.1964C13.159 23.6288 13.8406 23.6288 14.2369 23.1964L23.5706 13.0142C24.0963 12.4407 24.0963 11.5605 23.5706 10.987L14.2369 0.804744C13.8406 0.372377 13.159 0.372377 12.7626 0.804744L11.7092 1.95393L10.7526 0.860664C10.3542 0.405337 9.64584 0.405337 9.24744 0.860664L0.364299 11.0128Z" fill="white"/>
</mask>
<g mask="url(#mask3_10746_18379)">
<path d="M9.99902 24.001L-0.500977 12.001L9.99902 0.000976562L20.499 12.001L9.99902 24.001Z" fill="url(#paint0_linear_10746_18379)"/>
<g filter="url(#filter0_f_10746_18379)">
<path d="M13.4979 0.500977L24.4979 12.501L13.4979 24.501L8.61735 19.1767C8.26687 18.7944 8.26687 18.2076 8.61735 17.8253L12.8785 13.1767C13.229 12.7944 13.229 12.2076 12.8785 11.8253L8.61735 7.1767C8.26687 6.79438 8.26687 6.20758 8.61735 5.82525L13.4979 0.500977Z" fill="black" fill-opacity="0.32"/>
</g>
<g filter="url(#filter1_f_10746_18379)">
<path d="M13.4979 0.0966797L24.4979 12.0967L13.4979 24.0967L8.61735 18.7724C8.26687 18.3901 8.26687 17.8033 8.61735 17.4209L12.8785 12.7724C13.229 12.3901 13.229 11.8033 12.8785 11.4209L8.61735 6.7724C8.26687 6.39007 8.26687 5.80327 8.61735 5.42095L13.4979 0.0966797Z" fill="black" fill-opacity="0.24"/>
</g>
<path d="M13.4979 0.000976562L24.4979 12.001L13.4979 24.001L8.61735 18.6767C8.26687 18.2944 8.26687 17.7076 8.61735 17.3253L12.8785 12.6767C13.229 12.2944 13.229 11.7076 12.8785 11.3253L8.61735 6.6767C8.26687 6.29438 8.26687 5.70758 8.61735 5.32525L13.4979 0.000976562Z" fill="url(#paint1_linear_10746_18379)"/>
<path d="M18.2622 6.80573C18.6585 6.37335 19.3402 6.37335 19.7365 6.80573L24.4993 12.0016L19.7365 17.1974C19.3402 17.6298 18.6585 17.6298 18.2622 17.1974L14.4285 13.0151C13.9028 12.4417 13.9028 11.5615 14.4285 10.988L18.2622 6.80573Z" fill="url(#paint2_linear_10746_18379)"/>
</g>
</g>
</g>
</g>
<defs>
<filter id="filter0_f_10746_18379" x="6.35449" y="-1.49902" width="20.1436" height="28" filterUnits="userSpaceOnUse" color-interpolation-filters="sRGB">
<feFlood flood-opacity="0" result="BackgroundImageFix"/>
<feBlend mode="normal" in="SourceGraphic" in2="BackgroundImageFix" result="shape"/>
<feGaussianBlur stdDeviation="1" result="effect1_foregroundBlur_10746_18379"/>
</filter>
<filter id="filter1_f_10746_18379" x="8.16449" y="-0.0933203" width="16.5236" height="24.38" filterUnits="userSpaceOnUse" color-interpolation-filters="sRGB">
<feFlood flood-opacity="0" result="BackgroundImageFix"/>
<feBlend mode="normal" in="SourceGraphic" in2="BackgroundImageFix" result="shape"/>
<feGaussianBlur stdDeviation="0.095" result="effect1_foregroundBlur_10746_18379"/>
</filter>
<linearGradient id="paint0_linear_10746_18379" x1="17.749" y1="24.001" x2="3.74902" y2="-10.249" gradientUnits="userSpaceOnUse">
<stop stop-color="#742774"/>
<stop offset="1" stop-color="#BB35A4"/>
</linearGradient>
<linearGradient id="paint1_linear_10746_18379" x1="7.99817" y1="0.00103751" x2="19.4982" y2="24.001" gradientUnits="userSpaceOnUse">
<stop stop-color="#E48CC7"/>
<stop offset="1" stop-color="#D467B9"/>
</linearGradient>
<linearGradient id="paint2_linear_10746_18379" x1="15.4993" y1="7.2516" x2="18.9993" y2="18.0016" gradientUnits="userSpaceOnUse">
<stop stop-color="#E9A1CB"/>
<stop offset="1" stop-color="#E48CC7"/>
</linearGradient>
</defs>
</svg>
